# AST/ASF file generated using VICON BodyLanguage
# -----------------------------------------------
:version 1.10
:name VICON
:units
  mass 1.0
  length 0.45
  angle deg
:documentation
   .ast/.asf automatically generated from VICON data using
   VICON BodyBuilder and BodyLanguage model FoxedUp or BRILLIANT.MOD
:root
   order TX TY TZ RX RY RZ
   axis XYZ
   position 0 0 0  
   orientation 0 0 0 
:bonedata
  begin
     id 1 
     name lhipjoint
     direction 0.561145 -0.797705 0.220866 
     length 2.46425 
     axis 0 0 0  XYZ
  end
  begin
     id 2 
     name lfemur
     direction 0.34202 -0.939693 0  
     length 7.95556  
     axis 0 0 20  XYZ
    dof rx ry rz
    limits (-160.0 20.0)
           (-70.0 70.0)
           (-60.0 70.0)
  end
  begin
     id 3 
     name ltibia
     direction 0.34202 -0.939693 0   
     length 7.9832   
     axis 0 0 20   XYZ
    dof rx
    limits (-10.0 170.0)
  end
  begin
     id 4 
     name lfoot
     direction 0.0723927 -0.198897 0.977343   
     length 2.23085   
     axis -90 7.62852e-016 20   XYZ
    dof rx rz
    limits (-45.0 90.0)
           (-70.0 20.0)
  end
  begin
     id 5 
     name ltoes
     direction 1.53826e-011 -4.21988e-011 1   
     length 1.12127   
     axis -90 7.62852e-016 20   XYZ
    dof rx
    limits (-90.0 20.0)
  end
  begin
     id 6 
     name rhipjoint
     direction -0.610499 -0.763299 0.21134   
     length 2.57533  
     axis 0 0 0  XYZ 
  end
  begin
     id 7 
     name rfemur
     direction -0.34202 -0.939693 0   
     length 8.65257   
     axis 0 0 -20   XYZ
    dof rx ry rz
    limits (-160.0 20.0)
           (-70.0 70.0)
           (-70.0 60.0)
  end
  begin
     id 8 
     name rtibia
     direction -0.342021 -0.939692 0   
     length 7.37807   
     axis 0 0 -20   XYZ
    dof rx
    limits (-10.0 170.0)
 end
 begin
     id 9 
     name rfoot
     direction -0.0239304 -0.0543852 0.998233   
     length 1.87018  
     axis -90 -7.62852e-016 -20   XYZ
    dof rx rz
    limits (-45.0 90.0)
           (-20.0 70.0)
  end
  begin
     id 10 
     name rtoes
     direction -1.53584e-011 -4.2242e-011 1   
     length 0.951568   
     axis -90 -7.62852e-016 -20   XYZ
    dof rx
    limits (-90.0 20.0)
  end
  begin
     id 11 
     name lowerback
     direction 0.00322089 0.999033 0.0438587   
     length 2.07568   
     axis 0 0 0   XYZ
    dof rx ry rz
    limits (-20.0 45.0)
           (-30.0 30.0)
           (-30.0 30.0)
  end
  begin
     id 12 
     name upperback
     direction -0.00321932 0.999732 -0.0229403   
     length 2.06253   
     axis 0 0 0   XYZ
    dof rx ry rz
    limits (-20.0 45.0)
           (-30.0 30.0)
           (-30.0 30.0)
  end
  begin
     id 13 
     name thorax
     direction -0.00537537 0.998955 -0.0453918   
     length 2.06975   
     axis 0 0 0   XYZ
    dof rx ry rz
    limits (-20.0 45.0)
           (-30.0 30.0)
           (-30.0 30.0)
  end
  begin
     id 14 
     name lowerneck
     direction -0.00013604 0.994111 0.108363   
     length 1.50836   
     axis 0 0 0   XYZ
    dof rx ry rz
    limits (-20.0 45.0)
           (-30.0 30.0)
           (-30.0 30.0)
  end
  begin
     id 15 
     name upperneck
     direction 0.0397262 0.983859 -0.174482   
     length 1.53037   
     axis 0 0 0   XYZ
    dof rx ry rz
    limits (-20.0 45.0)
           (-30.0 30.0)
           (-30.0 30.0)
  end
  begin
     id 16
     name head
     direction 0.0109991 0.997082 -0.0755378  
     length 1.56928  
     axis 0 0 0   XYZ
    dof rx ry rz
    limits (-20.0 45.0)
           (-30.0 30.0)
           (-30.0 30.0)
  end
  begin
     id 17 
     name lclavicle
     direction 0.964749 0.254 -0.068874  
     length 3.26503  
     axis 0 0 0   XYZ
    dof ry rz
    limits (-20.0 10.0)
           (0.0 20.0)
  end
  begin
     id 18 
     name lhumerus
     direction 1 -4.48941e-011 -2.05079e-027   
     length 5.68236   
     axis 180 -30 -90   XYZ
    dof rx ry rz
    limits (-60.0 90.0)
           (-90.0 90.0)
           (-90.0 90.0)
  end
  begin
     id 19
     name lradius
     direction 1 -4.48956e-011 6.2882e-027   
     length 3.17112   
     axis 180 -30 -90   XYZ
    dof rx
    limits (-10.0 170.0)
  end
  begin
     id 20
     name lwrist
     direction 1 -4.49014e-011 1.73219e-026   
     length 1.58556   
     axis -1.04724e-014 90 90   XYZ
    dof ry
    limits (-180.0 0.0)
 end
  begin
     id 21 
     name lhand
     direction 1 -4.49312e-011 3.46438e-026   
     length 0.632691   
     axis -2.21057e-014 90 90   XYZ
    dof rx rz
    limits (-90.0 90.0)
           (-45.0 45.0)
  end
  begin
     id 22 
     name lfingers
     direction 1 -4.48894e-011 6.92876e-026   
     length 0.510091   
     axis -4.42114e-014 90 90   XYZ
    dof rx
    limits (0.0 90.0)
  end
  begin
     id 23
     name lthumb
     direction 0.707107 -6.34705e-011 0.707107   
     length 0.732392   
     axis -90 45 2.85299e-015   XYZ
    dof rx rz
    limits (-45.0 45.0)
           (-45.0 45.0)
  end
  begin
     id 24 
     name rclavicle
     direction -0.954374 0.280496 -0.102435   
     length 3.25419  
     axis 0 0 0   XYZ 
    dof ry rz
    limits (-10.0 20.0)
           (-20.0 0.0)
  end
  begin
     id 25 
     name rhumerus
     direction -1 -4.48994e-011 -1.07204e-017  
     length 5.8712   
     axis 180 30 90   XYZ
    dof rx ry rz
    limits (-90.0 60.0)
           (-90.0 90.0)
           (-90.0 90.0)
  end
  begin
     id 26 
     name rradius
     direction -1 -4.48972e-011 5.89292e-027   
     length 3.37589   
     axis 180 30 90   XYZ
    dof rx
    limits (-10.0 170.0)
  end
  begin
     id 27 
     name rwrist
     direction -1 -4.48942e-011 1.73219e-026   
     length 1.68794   
     axis -1.04724e-014 -90 -90   XYZ
    dof ry
    limits (-180.0 0.0)
  end
  begin
     id 28
     name rhand
     direction -1 -4.48514e-011 3.46438e-026   
     length 0.603257   
     axis -2.21057e-014 -90 -90   XYZ
    dof rx rz
    limits (-90.0 90.0)
           (-45.0 45.0)
  end
  begin
     id 29
     name rfingers
     direction -1 -4.50028e-011 6.92876e-026   
     length 0.486362   
     axis -4.42114e-014 -90 -90   XYZ
    dof rx
    limits (0.0 90.0)
  end
  begin
     id 30
     name rthumb
     direction -0.707107 -6.34926e-011 0.707107   
     length 0.698321   
     axis -90 -45 -2.85299e-015   XYZ
    dof rx rz
    limits (-45.0 45.0)
           (-45.0 45.0)
  end
:hierarchy
  begin
    root lhipjoint rhipjoint lowerback
    lhipjoint lfemur
    lfemur ltibia
    ltibia lfoot
    lfoot ltoes
    rhipjoint rfemur
    rfemur rtibia
    rtibia rfoot
    rfoot rtoes
    lowerback upperback
    upperback thorax
    thorax lowerneck lclavicle rclavicle
    lowerneck upperneck
    upperneck head
    lclavicle lhumerus
    lhumerus lradius
    lradius lwrist
    lwrist lhand lthumb
    lhand lfingers
    rclavicle rhumerus
    rhumerus rradius
    rradius rwrist
    rwrist rhand rthumb
    rhand rfingers
  end

#!OML:ASF I:\Segmentation\Patient Classification 1\Patient 1\Session 1\Patient1.ASF
:FULLY-SPECIFIED
:DEGREES
2862
root 14.344 18.0622 2.22911 -345.679 -287.307 -1439.68
lowerback -13.3454 -0.510166 -2.86742
upperback 0.825703 -0.323872 1.39775
thorax 8.4217 -0.314964 3.05427
lowerneck -17.0838 4.99707 1.87063
upperneck 30.3298 8.85858 -4.60169
head 13.3725 3.68171 -0.607614
rclavicle -4.36332e-014 -4.96962e-015
rhumerus -37.2171 -12.1912 -71.4399
rradius 36.3726
rwrist 12.9286
rhand -14.982 29.868
rfingers 7.12502
rthumb 11.1821 0.18597
lclavicle -4.36332e-014 -4.96962e-015
lhumerus -22.8956 -9.93477 87.4136
lradius 34.2979
lwrist 18.9529
lhand -14.4325 36.6318
lfingers 7.12502
lthumb 11.712 66.2844
rfemur -31.3886 5.16517 14.6849
rtibia 51.5503
rfoot -10.7921 -1.52519
rtoes -63.7745
lfemur -35.6101 -0.071867 -25.4293
ltibia 40.1995
lfoot -20.004 7.66616
ltoes -10.1943
2863
root 14.4109 18.0594 2.23152 -345.605 -287.265 -1439.59
lowerback -13.3445 -0.541361 -2.92869
upperback 0.828029 -0.358733 1.43518
thorax 8.42734 -0.335679 3.12223
lowerneck -16.9291 4.99411 2.0253
upperneck 30.1855 8.82774 -4.71798
head 13.2921 3.67688 -0.689095
rclavicle -4.86525e-014 3.77691e-015
rhumerus -37.1618 -12.1027 -71.6651
rradius 36.8639
rwrist 12.6573
rhand -15.1366 29.8163
rfingers 7.12502
rthumb 11.033 0.126279
lclavicle -4.86525e-014 3.77691e-015
lhumerus -22.4774 -9.98397 87.3118
lradius 34.4614
lwrist 18.8663
lhand -14.6802 36.1798
lfingers 7.12502
lthumb 11.4732 65.8458
rfemur -31.9871 5.46203 14.4974
rtibia 50.8613
rfoot -11.0269 -1.48342
rtoes -63.283
lfemur -35.3672 -0.107055 -25.5209
ltibia 40.2495
lfoot -20.1838 7.66815
ltoes -10.7318
2864
root 14.4789 18.0564 2.23489 -345.454 -287.224 -1439.4
lowerback -13.3733 -0.583431 -2.99548
upperback 0.850728 -0.406524 1.47268
thorax 8.47321 -0.364054 3.19107
lowerneck -16.877 5.01625 2.09456
upperneck 30.0849 8.85383 -4.80224
head 13.2486 3.68765 -0.730911
rclavicle 5.13361e-014 -1.17283e-014
rhumerus -37.0634 -12.0573 -71.854
rradius 37.3142
rwrist 12.5125
rhand -15.1431 29.5655
rfingers 7.12502
rthumb 11.0267 -0.124891
lclavicle 5.13361e-014 -1.17283e-014
lhumerus -22.0166 -10.2644 87.2349
lradius 34.6515
lwrist 18.9219
lhand -14.9115 36.2204
lfingers 7.12502
lthumb 11.2501 65.8987
rfemur -32.5392 5.78089 14.2658
rtibia 50.1908
rfoot -11.2196 -1.49925
rtoes -62.9817
lfemur -35.1057 -0.0584354 -25.6644
ltibia 40.2931
lfoot -20.3538 7.5747
ltoes -10.9897
2865
root 14.5385 18.0546 2.23711 -345.538 -287.116 -1439.42
lowerback -13.2321 -0.595869 -2.95834
upperback 0.873804 -0.435871 1.50474
thorax 8.41986 -0.376928 3.19786
lowerneck -16.9948 4.99565 2.04168
upperneck 30.0529 8.81816 -4.76415
head 13.2535 3.66729 -0.710436
rclavicle -8.69683e-015 -1.59028e-015
rhumerus -36.9138 -12.0955 -72.0447
rradius 37.6773
rwrist 12.3581
rhand -15.0611 29.5042
rfingers 7.12502
rthumb 11.1058 -0.181966
lclavicle -8.69683e-015 -1.59028e-015
lhumerus -21.4537 -10.8009 87.138
lradius 34.8165
lwrist 19.1412
lhand -15.0087 36.3913
lfingers 7.12502
lthumb 11.1564 66.0747
rfemur -33.0902 6.16184 14.1028
rtibia 49.544
rfoot -11.4032 -1.84772
rtoes -62.8491
lfemur -34.8431 -0.0696814 -25.7004
ltibia 40.3137
lfoot -20.5016 7.4209
ltoes -10.8883
2866
root 14.5916 18.0524 2.23723 -345.819 -286.963 -1439.68
lowerback -12.9905 -0.60376 -2.86846
upperback 0.855838 -0.473085 1.5809
thorax 8.26514 -0.389705 3.21983
lowerneck -17.1116 4.95534 1.81393
upperneck 30.0588 8.75997 -4.56572
head 13.2544 3.63846 -0.60238
rclavicle 3.43401e-014 -7.55382e-015
rhumerus -36.7788 -12.0164 -72.2382
rradius 38.0747
rwrist 12.0472
rhand -15.0291 29.6507
rfingers 7.12502
rthumb 11.1367 -0.0337694
lclavicle 3.43401e-014 -7.55382e-015
lhumerus -20.9597 -11.0939 87.0498
lradius 35.0961
lwrist 19.2532
lhand -14.9691 36.4571
lfingers 7.12502
lthumb 11.1946 66.1384
rfemur -33.7294 6.52573 14.0276
rtibia 48.8995
rfoot -11.5409 -2.37668
rtoes -62.8153
lfemur -34.6475 -0.124481 -25.6338
ltibia 40.3312
lfoot -20.6473 7.19306
ltoes -10.4503
2867
root 14.6498 18.0538 2.23693 -345.854 -286.847 -1439.77
lowerback -12.9255 -0.623995 -2.82376
upperback 0.838515 -0.511711 1.62127
thorax 8.21227 -0.406134 3.22966
lowerneck -17.1457 4.93383 1.724
upperneck 29.9706 8.70624 -4.46064
head 13.2112 3.61823 -0.555769
rclavicle -1.80894e-014 2.3059e-014
rhumerus -36.674 -11.8467 -72.5114
rradius 38.5498
rwrist 11.7234
rhand -15.0763 29.5218
rfingers 7.12502
rthumb 11.0911 -0.165137
lclavicle -1.80894e-014 2.3059e-014
lhumerus -20.5628 -11.1928 86.9093
lradius 35.5021
lwrist 19.2456
lhand -15.0341 36.576
lfingers 7.12502
lthumb 11.1319 66.2607
rfemur -34.4268 6.833 13.8572
rtibia 48.2326
rfoot -11.6506 -2.87173
rtoes -62.685
lfemur -34.5169 -0.145951 -25.6543
ltibia 40.3736
lfoot -20.854 6.97878
ltoes -10.085
2868
root 14.7107 18.0521 2.2383 -345.607 -286.758 -1439.6
lowerback -12.9354 -0.631453 -2.84577
upperback 0.797677 -0.516215 1.60358
thorax 8.17414 -0.40739 3.2221
lowerneck -17.1963 4.90307 1.82667
upperneck 29.9314 8.63161 -4.49352
head 13.2094 3.59124 -0.597241
rclavicle 3.72721e-015 1.15295e-014
rhumerus -36.6016 -11.7567 -72.8062
rradius 38.923
rwrist 11.4471
rhand -15.1594 29.2295
rfingers 7.12502
rthumb 11.011 -0.461711
lclavicle 3.72721e-015 1.15295e-014
lhumerus -20.2202 -11.4143 86.7768
lradius 35.8185
lwrist 19.4437
lhand -15.483 36.5592
lfingers 7.12502
lthumb 10.6989 66.2668
rfemur -35.0977 7.11709 13.5949
rtibia 47.5335
rfoot -11.6643 -3.33472
rtoes -62.5419
lfemur -34.4123 -0.201831 -25.7621
ltibia 40.429
lfoot -21.0844 6.93094
ltoes -10.4075
2869
root 14.7738 18.0401 2.2425 -345.524 -286.619 -1439.57
lowerback -12.9887 -0.627628 -2.82099
upperback 0.775634 -0.515006 1.62601
thorax 8.18063 -0.405831 3.2324
lowerneck -17.2924 4.82958 1.75197
upperneck 30.0047 8.53095 -4.4221
head 13.2485 3.54478 -0.571036
rclavicle -4.85532e-014 9.14409e-015
rhumerus -36.4818 -11.7809 -72.9839
rradius 39.1591
rwrist 11.2533
rhand -15.1999 29.2819
rfingers 7.12502
rthumb 10.9719 -0.411388
lclavicle -4.85532e-014 9.14409e-015
lhumerus -19.859 -11.7795 86.7584
lradius 36.0734
lwrist 20.0527
lhand -16.3075 36.1754
lfingers 7.12502
lthumb 9.90346 65.9225
rfemur -35.6519 7.28132 13.4664
rtibia 46.8019
rfoot -11.6081 -3.5872
rtoes -62.7603
lfemur -34.2859 -0.205551 -25.8202
ltibia 40.4625
lfoot -21.2112 6.84671
ltoes -11.1063
2870
root 14.8399 18.0369 2.24784 -345.682 -286.426 -1439.75
lowerback -13.0788 -0.648206 -2.74262
upperback 0.83383 -0.557134 1.68009
thorax 8.29807 -0.427139 3.23814
lowerneck -17.4597 4.77647 1.57015
upperneck 30.0445 8.45647 -4.2605
head 13.2793 3.50732 -0.486097
rclavicle 3.94091e-014 -8.74653e-015
rhumerus -36.2628 -11.8633 -73.1349
rradius 39.3794
rwrist 11.3573
rhand -15.3607 29.5181
rfingers 7.12502
rthumb 10.8169 -0.183397
lclavicle 3.94091e-014 -8.74653e-015
lhumerus -19.3305 -12.0738 86.6971
lradius 36.2724
lwrist 20.6265
lhand -16.8692 35.7994
lfingers 7.12502
lthumb 9.36158 65.5715
rfemur -36.1465 7.42725 13.4107
rtibia 46.0591
rfoot -11.6198 -3.82138
rtoes -63.1525
lfemur -34.0621 -0.0629701 -25.8386
ltibia 40.4283
lfoot -21.2075 6.55121
ltoes -11.5633
2871
root 14.9022 18.0465 2.25144 -345.681 -286.27 -1439.73
lowerback -13.0442 -0.705839 -2.78013
upperback 0.856669 -0.633108 1.7292
thorax 8.31031 -0.46751 3.297
lowerneck -17.504 4.78188 1.53152
upperneck 29.944 8.45003 -4.22896
head 13.2423 3.50364 -0.468319
rclavicle 7.9812e-014 -7.95139e-016
rhumerus -36.0881 -11.7468 -73.3585
rradius 39.6349
rwrist 11.419
rhand -15.4553 29.7656
rfingers 7.12502
rthumb 10.7256 0.0593817
lclavicle 7.9812e-014 -7.95139e-016
lhumerus -18.7948 -11.7874 86.4783
lradius 36.4635
lwrist 20.0065
lhand -16.2659 36.1067
lfingers 7.12502
lthumb 9.94364 65.8518
rfemur -36.7039 7.74139 13.1943
rtibia 45.3141
rfoot -11.7202 -4.17778
rtoes -63.4913
lfemur -33.7635 0.0861968 -25.921
ltibia 40.3128
lfoot -21.1881 6.24908
ltoes -11.6921
2872
root 14.97 18.0569 2.2536 -345.461 -286.148 -1439.49
lowerback -13.0583 -0.745034 -2.85459
upperback 0.842329 -0.675279 1.75546
thorax 8.30773 -0.491589 3.35908
lowerneck -17.3874 4.7606 1.56166
upperneck 29.8227 8.41673 -4.29015
head 13.1705 3.48962 -0.506613
rclavicle -9.14409e-015 3.1408e-014
rhumerus -36.0334 -11.5162 -73.5878
rradius 39.956
rwrist 11.1303
rhand -15.2069 29.7674
rfingers 7.12502
rthumb 10.9652 0.0737318
lclavicle -9.14409e-015 3.1408e-014
lhumerus -18.393 -11.3527 86.2484
lradius 36.7183
lwrist 18.6695
lhand -14.9262 36.7559
lfingers 7.12502
lthumb 11.2359 66.435
rfemur -37.2504 7.99986 12.8992
rtibia 44.5555
rfoot -11.8737 -4.38158
rtoes -63.6825
lfemur -33.3821 0.144287 -26.0681
ltibia 40.0972
lfoot -21.2583 6.00307
ltoes -11.578
2873
root 15.046 18.0647 2.25748 -345.269 -285.994 -1439.27
lowerback -13.207 -0.765583 -2.85024
upperback 0.868464 -0.699381 1.75009
thorax 8.42284 -0.505393 3.34643
lowerneck -17.3786 4.71563 1.5845
upperneck 29.8056 8.35517 -4.32879
head 13.1625 3.46093 -0.535971
rclavicle 1.1281e-014 -4.37326e-015
rhumerus -36.0306 -11.3644 -73.8328
rradius 40.3325
rwrist 10.9071
rhand -15.0128 29.4433
rfingers 7.12502
rthumb 11.1524 -0.240282
lclavicle 1.1281e-014 -4.37326e-015
lhumerus -18.0698 -11.3961 86.0911
lradius 36.9766
lwrist 18.242
lhand -14.0418 36.7672
lfingers 7.12502
lthumb 12.0888 66.398
rfemur -37.7019 8.09223 12.6903
rtibia 43.8066
rfoot -12.085 -4.38292
rtoes -63.767
lfemur -32.9449 0.20134 -26.2094
ltibia 39.8499
lfoot -21.3331 5.79631
ltoes -11.6936
